<?xml version="1.0" encoding="UTF-8" standalone="no"?>
<!-- Created with Inkscape (http://www.inkscape.org/) -->

<svg
   version="1.0"
   width="200"
   height="200"
   id="svg2424"
   sodipodi:docname="logo.svg"
   inkscape:version="1.4.2 (ebf0e940d0, 2025-05-08)"
   xmlns:inkscape="http://www.inkscape.org/namespaces/inkscape"
   xmlns:sodipodi="http://sodipodi.sourceforge.net/DTD/sodipodi-0.dtd"
   xmlns:xlink="http://www.w3.org/1999/xlink"
   xmlns="http://www.w3.org/2000/svg"
   xmlns:svg="http://www.w3.org/2000/svg">
  <sodipodi:namedview
     id="namedview1"
     pagecolor="#505050"
     bordercolor="#eeeeee"
     borderopacity="1"
     inkscape:showpageshadow="0"
     inkscape:pageopacity="0"
     inkscape:pagecheckerboard="0"
     inkscape:deskcolor="#505050"
     inkscape:zoom="1.463768"
     inkscape:cx="291.02973"
     inkscape:cy="83.346541"
     inkscape:window-width="1920"
     inkscape:window-height="1164"
     inkscape:window-x="0"
     inkscape:window-y="0"
     inkscape:window-maximized="1"
     inkscape:current-layer="g2424" />
  <defs
     id="defs2426">
    <linearGradient
       x1="112.49854"
       y1="6.1372099"
       x2="112.49853"
       y2="129.3468"
       id="path1082_2_"
       gradientUnits="userSpaceOnUse"
       gradientTransform="translate(287,-83)">
      <stop
         id="stop193"
         style="stop-color:#ffffff;stop-opacity:0"
         offset="0" />
      <stop
         id="stop195"
         style="stop-color:#ffffff;stop-opacity:0.27450982"
         offset="1" />
      <midPointStop
         offset="0"
         style="stop-color:#FFFFFF"
         id="midPointStop197" />
      <midPointStop
         offset="0.5"
         style="stop-color:#FFFFFF"
         id="midPointStop199" />
      <midPointStop
         offset="1"
         style="stop-color:#000000"
         id="midPointStop201" />
    </linearGradient>
    <linearGradient
       x1="541.33502"
       y1="104.50665"
       x2="606.91248"
       y2="303.14029"
       id="linearGradient2544"
       xlink:href="#path1082_2_"
       gradientUnits="userSpaceOnUse"
       gradientTransform="matrix(-0.3937741,0,0,0.393752,357.51969,122.00151)" />
    <linearGradient
       id="linearGradient3388">
      <stop
         id="stop3390"
         style="stop-color:#000000;stop-opacity:0"
         offset="0" />
      <stop
         id="stop3392"
         style="stop-color:#000000;stop-opacity:0.37113401"
         offset="1" />
    </linearGradient>
    <linearGradient
       x1="490.72305"
       y1="237.72447"
       x2="490.72305"
       y2="183.9644"
       id="linearGradient4416"
       xlink:href="#linearGradient3388"
       gradientUnits="userSpaceOnUse"
       gradientTransform="matrix(0.749107,0,0,0.749107,-35.459862,91.44108)" />
  </defs>
  <g
     transform="translate(-34.777313,-129.80241)"
     id="layer1">
    <g
       transform="matrix(0.8746356,0,0,0.8746356,14.730518,23.408954)"
       id="g2424">
      <path
         d="m 137.23265,124.95732 c -9.88275,24.22987 -15.84354,40.07904 -26.84668,63.58865 6.7463,7.15108 15.02707,15.47888 28.47502,24.88433 -14.45787,-5.94932 -24.3199,-11.9223 -31.68995,-18.12047 -14.081932,29.38411 -36.14426,71.24046 -80.915835,151.68587 35.188955,-20.31519 62.466803,-32.83973 87.888455,-37.61876 -1.09161,-4.69502 -1.71224,-9.77361 -1.67008,-15.07256 l 0.0417,-1.12731 c 0.55835,-22.54463 12.28606,-39.88145 26.17864,-38.70432 13.89259,1.17713 24.69115,20.41841 24.1328,42.96305 -0.10506,4.24219 -0.58352,8.32312 -1.41958,12.10815 25.14564,4.91893 52.13181,17.4114 86.84465,37.45175 -6.84469,-12.60156 -12.95418,-23.96094 -18.78851,-34.77961 -9.19001,-7.12288 -18.77566,-16.39333 -38.32855,-26.42917 13.43953,3.49216 23.06206,7.52118 30.56263,12.02465 C 162.37814,187.36944 157.57455,172.69396 137.23265,124.95732 Z"
         id="path2518"
         style="fill:#ffffff;fill-opacity:1;fill-rule:evenodd;stroke:none;stroke-width:1.33607" />
    </g>
  </g>
</svg>
